#define halfspam_width 126
#define halfspam_height 131
static char halfspam_bits[] = {
 0x00,0x00,0x80,0x00,0x00,0x00,0x00,0x00,0x00,0x00,0x00,0x00,0x00,0x00,0x00,
 0x00,0x00,0x00,0x00,0x0a,0x00,0x00,0x00,0x00,0x00,0x00,0x00,0x00,0x00,0x00,
 0x00,0x00,0x00,0x04,0x90,0x00,0x44,0x10,0x20,0x22,0x04,0x00,0x00,0x00,0x00,
 0x00,0x00,0x00,0x00,0x01,0x00,0x00,0x00,0x00,0x04,0x00,0x00,0x01,0x00,0x00,
 0x00,0x00,0x00,0x00,0x00,0x00,0x00,0x00,0x00,0x00,0x00,0x00,0x40,0x20,0x82,
 0x44,0x00,0x00,0x00,0x00,0x00,0x00,0x00,0x00,0x00,0x00,0x00,0x00,0x00,0x00,
 0x40,0x00,0x84,0x00,0x00,0x00,0x40,0x00,0x00,0x00,0x00,0x00,0x00,0x00,0x00,
 0x00,0x00,0x00,0x00,0x40,0x00,0x00,0x00,0x00,0x00,0x00,0x00,0x00,0x00,0x00,
 0x00,0x00,0x00,0x00,0x00,0x04,0x20,0x00,0x10,0x80,0x00,0x00,0x00,0x00,0x00,
 0x00,0x00,0x00,0x00,0x00,0x00,0x00,0x00,0x05,0x00,0x00,0x14,0x00,0x00,0x00,
 0x00,0x00,0x00,0x00,0x00,0x00,0x00,0x00,0x80,0x10,0x00,0x20,0x01,0x00,0x00,
 0x00,0x00,0x00,0x00,0x00,0x00,0x00,0x00,0x00,0x00,0x10,0x02,0x84,0x00,0x00,
 0x00,0x00,0x00,0x02,0x00,0x00,0x00,0x00,0x00,0x00,0x00,0x14,0x00,0x00,0x00,
 0x00,0x00,0x00,0x10,0x00,0x00,0x02,0x00,0x00,0x00,0x00,0x00,0x08,0x81,0x20,
 0x00,0x00,0x41,0x00,0x80,0x00,0x42,0x20,0x00,0x00,0x0a,0x00,0x00,0x08,0x26,
 0x00,0x01,0x10,0x00,0x00,0x08,0x00,0x00,0x00,0x50,0x09,0x00,0x00,0x00,0x04,
 0x0c,0x08,0x00,0x00,0x02,0x00,0x00,0x01,0x00,0x80,0x07,0xa0,0x10,0x00,0x00,
 0x04,0x0a,0x00,0x00,0x00,0x00,0x00,0x00,0x00,0x00,0xa8,0x00,0x00,0x02,0x00,
 0x80,0x04,0x86,0x00,0x00,0x40,0x20,0x00,0x00,0x00,0x00,0x00,0x00,0x00,0x20,
 0x02,0x20,0x02,0x9e,0x05,0x00,0x00,0x00,0x00,0x00,0x00,0x00,0x00,0x00,0x00,
 0x80,0x00,0x00,0x03,0xfc,0x9b,0x00,0x00,0x00,0x00,0x00,0x00,0x00,0x08,0x00,
 0x08,0x08,0x04,0x04,0x01,0xfe,0xbf,0x16,0x00,0x00,0x00,0x00,0x00,0x00,0x10,
 0x00,0x00,0x00,0x00,0x00,0x00,0xfe,0xff,0xff,0x2f,0x00,0x00,0x00,0x00,0x00,
 0x00,0x00,0x00,0x04,0x00,0x00,0x00,0xfe,0xff,0xef,0xff,0xbf,0x02,0x00,0x00,
 0x00,0x00,0x00,0x00,0x40,0x01,0x00,0x00,0xfe,0x0f,0xf8,0xf7,0xff,0xff,0x5f,
 0x00,0x00,0x00,0x00,0x00,0x20,0x00,0x00,0x01,0xfc,0x03,0x80,0xbd,0xf7,0xff,
 0xf7,0xff,0x15,0x00,0x00,0x00,0x4a,0x01,0x40,0x00,0xfe,0x41,0x04,0x0e,0xa8,
 0xfd,0xff,0xff,0xff,0x7f,0x25,0x00,0x00,0x00,0xba,0x02,0xfe,0x89,0x03,0x0c,
 0x00,0xd0,0xfe,0xde,0xff,0xdf,0xff,0xff,0x00,0xe8,0xdf,0x00,0xfe,0xc0,0x9f,
 0x04,0x00,0x80,0xef,0x03,0xf7,0xff,0xff,0xff,0xff,0xff,0xbd,0x00,0xfe,0xc0,
 0x3f,0x58,0x09,0x00,0x7e,0x03,0xff,0xab,0xfb,0xff,0xff,0xbf,0x6f,0x01,0xfe,
 0xe0,0x7f,0x38,0xe0,0x09,0xec,0x01,0xbe,0x03,0xe0,0x6e,0xff,0xef,0x7f,0x02,
 0xba,0xc8,0xff,0x3c,0xe0,0x07,0xf8,0x80,0xfc,0x03,0xc0,0xff,0x00,0xfc,0xfb,
 0x00,0xfe,0x80,0xfb,0x3d,0xa0,0x0b,0x78,0x20,0xdc,0x03,0xc0,0x7f,0x00,0xc8,
 0x5e,0x02,0xfe,0x00,0x7f,0x1f,0xe0,0x0f,0x70,0x02,0xf8,0x2f,0x80,0x77,0x00,
 0xfc,0xff,0x00,0xfe,0x08,0xf4,0x3f,0xe4,0x0f,0x72,0x00,0x78,0x1f,0x84,0x7f,
 0x00,0xf6,0xbf,0x00,0xfe,0x41,0xc0,0x3f,0xe1,0x8e,0x30,0x08,0xf0,0x1f,0x80,
 0x3f,0x08,0xff,0x7f,0x01,0xfe,0x01,0x00,0x3b,0xe0,0x0f,0x30,0x0c,0xf1,0x17,
 0x20,0x1f,0x40,0x7f,0x7b,0x01,0xfe,0x13,0x11,0x3c,0xe0,0x0b,0x18,0x1c,0xe0,
 0x1e,0x02,0x5b,0x04,0xff,0x5f,0x01,0xfa,0x07,0x04,0x38,0xe0,0x86,0x18,0x1e,
 0xe0,0x0f,0x00,0x1e,0x00,0xf6,0xff,0x00,0xfe,0x0f,0x00,0x18,0xa4,0x00,0x08,
 0x36,0xe8,0x1f,0x00,0x0e,0x00,0xbf,0xbb,0x02,0xfe,0x7f,0x00,0x31,0x00,0x00,
 0x0e,0x3e,0x42,0x17,0x22,0x8e,0x00,0xff,0x7f,0x00,0x7e,0xfc,0x13,0x30,0x00,
 0x20,0x4f,0x3f,0xc0,0x9f,0x02,0x24,0x10,0xff,0xef,0x09,0x7c,0xf9,0x0f,0x30,
 0x02,0xc2,0x05,0x7a,0x80,0x1f,0x02,0x09,0x01,0xf7,0x7d,0x00,0x7e,0xf8,0x1f,
 0x21,0xd0,0xfe,0x07,0x00,0x80,0x0b,0x06,0x80,0x21,0x7d,0xdf,0x02,0x7e,0xf8,
 0x3f,0x28,0xe0,0xfb,0x07,0x00,0x10,0x1f,0x16,0x80,0x01,0xfe,0x7f,0x00,0xfe,
 0xf2,0x3f,0x30,0xe0,0x7f,0x43,0x82,0x00,0x0f,0x0e,0xc0,0x01,0xff,0xbf,0x01,
 0xfe,0xe0,0x3b,0x32,0x62,0xff,0x83,0x04,0x04,0x1f,0x0e,0xc1,0x09,0xbe,0x77,
 0x00,0xfe,0xc1,0x1f,0x30,0xe0,0xef,0xa3,0xff,0x01,0x1e,0x0e,0xd0,0x01,0xff,
 0xdf,0x01,0xfe,0x13,0x46,0x38,0xe8,0xfb,0xc2,0xff,0x81,0x1e,0x5e,0xe4,0x01,
 0xfe,0x3e,0x02,0xfe,0x07,0x10,0x1d,0xc1,0xff,0xc1,0x7f,0x01,0x0c,0x3e,0xe0,
 0x41,0xde,0xff,0x00,0xde,0x9f,0x00,0x0e,0xc0,0xff,0xe0,0xe2,0x13,0x1e,0x3e,
 0xf0,0x01,0xff,0xb7,0x00,0xfe,0x7f,0xa5,0x0f,0x00,0x6f,0x80,0x5f,0x03,0x0c,
 0x36,0xf8,0x00,0xfe,0x7f,0x09,0xfc,0xff,0xff,0x5d,0x89,0x7b,0x84,0xd5,0x02,
 0x18,0x7e,0xf8,0x41,0xde,0x5d,0x02,0xfe,0xff,0xff,0xff,0xef,0x7f,0x40,0xbd,
 0x40,0x80,0xf8,0xba,0x11,0xfe,0xff,0x00,0xfe,0xff,0xff,0xff,0xff,0xff,0x8b,
 0xe7,0x00,0x20,0xf0,0xfd,0x00,0xfe,0xbe,0x00,0xfe,0xff,0x7f,0xdf,0xfd,0xfe,
 0x7b,0x9f,0x04,0x02,0xf0,0x7f,0x02,0xb4,0x6f,0x01,0xfe,0xff,0xff,0xff,0xbf,
 0x5f,0xad,0xf5,0xd5,0x04,0xfa,0x7f,0x40,0xf8,0xbf,0x04,0xfe,0xff,0xff,0xff,
 0xef,0xff,0xd7,0x4e,0xab,0xfb,0xbd,0xef,0x00,0xfc,0x77,0x01,0xfe,0xff,0xff,
 0x7b,0xff,0xaf,0xdd,0x5a,0xf5,0x89,0xee,0xff,0xff,0xff,0x7d,0x01,0xfe,0xff,
 0xdf,0xff,0xff,0x75,0xb3,0xeb,0xad,0x75,0xfd,0xfb,0xff,0x7f,0xdf,0x00,0xde,
 0xff,0xff,0xdf,0x55,0xdb,0x7e,0xfd,0xca,0xaa,0xaa,0xfe,0xff,0xdf,0xbf,0x00,
 0xfe,0xff,0xff,0x77,0xbf,0xb5,0x6a,0x55,0xda,0xd5,0x77,0xbf,0xff,0xfd,0x6f,
 0x01,0xfe,0xff,0xfb,0xee,0x55,0xab,0xdd,0xad,0x35,0x7b,0xdc,0xf5,0x7b,0xff,
 0x7b,0x01,0xfe,0xff,0xbf,0x5b,0x2b,0x6c,0xb5,0x6a,0xcd,0x9c,0xd5,0xf7,0xff,
 0xff,0xbf,0x00,0xfe,0xff,0xfe,0xbd,0x00,0x9a,0xaa,0x17,0x3e,0x7d,0xe2,0xdd,
 0xff,0x7f,0x6f,0x01,0xfe,0xff,0xaf,0x0e,0x00,0x52,0x65,0x55,0xcd,0x55,0x5d,
 0xf7,0xff,0xef,0x7f,0x01,0xfe,0xff,0xfb,0x35,0x10,0xac,0x92,0x5a,0x1d,0xa9,
 0xb5,0xfa,0xdd,0xfb,0xdb,0x04,0xee,0xbf,0x57,0x55,0x02,0xaa,0x54,0xa4,0xe5,
 0xb7,0xea,0x7d,0xff,0xff,0x7f,0x01,0xfe,0xef,0xad,0xed,0x00,0xaa,0x8a,0x55,
 0x9d,0xa4,0x5d,0xef,0xff,0x7f,0x6f,0x00,0xfe,0xfb,0xb6,0x5a,0x0b,0xaa,0x52,
 0xa9,0x6a,0x4c,0xdf,0xf6,0xff,0xff,0xbf,0x01,0xfe,0xff,0xd5,0xd6,0x0a,0x96,
 0xaa,0x14,0x55,0x5b,0xff,0xff,0xfe,0xf6,0x77,0x01,0xee,0xbf,0x5b,0x35,0x35,
 0x35,0xb5,0x62,0xa8,0xaa,0xba,0xff,0xef,0x7f,0xbf,0x02,0xfe,0x6f,0x5a,0xd5,
 0xaa,0x4a,0x29,0x8d,0x56,0xad,0xef,0xdd,0xfe,0xff,0xef,0x00,0xfe,0xdb,0xd6,
 0x55,0x55,0x55,0x66,0x6a,0x51,0x55,0xfd,0xff,0xfb,0xdf,0x7f,0x01,0x7c,0xb7,
 0x1a,0x55,0xab,0x8a,0x54,0x55,0x24,0xa9,0xb6,0xff,0xfe,0xff,0x5d,0x04,0xde,
 0xad,0xd2,0xaa,0x54,0x6b,0x4b,0xa5,0x55,0x72,0xfd,0xdb,0xff,0xfb,0xff,0x01,
 0xfe,0xdb,0xad,0x5a,0x4b,0x55,0xb5,0xaa,0x52,0x4b,0xdb,0xff,0xff,0x7f,0x3f,
 0x01,0xbe,0x56,0x6d,0x25,0xaa,0xa7,0x4a,0x49,0x49,0xa4,0xf6,0xff,0xff,0xff,
 0xfb,0x00,0x76,0x6b,0x4b,0xd5,0xd4,0x5a,0xad,0x2a,0x12,0x49,0xed,0xbd,0xfb,
 0xff,0x5f,0x01,0xdc,0xda,0x5a,0x55,0xeb,0x57,0x55,0x95,0xa2,0x52,0xf9,0xff,
 0xff,0xdf,0xff,0x00,0x5e,0xab,0x52,0x4a,0xb4,0xaf,0xaa,0x2b,0x55,0xaa,0xd6,
 0xff,0xff,0xff,0xbb,0x02,0x7c,0x55,0x6d,0xa9,0xfe,0x5b,0x35,0x56,0x49,0x25,
 0xf8,0xdf,0xff,0xff,0xfe,0x00,0xae,0xaf,0x95,0x92,0x7a,0xbd,0x56,0x49,0x32,
 0x91,0xd5,0xf7,0xff,0xdf,0x6f,0x01,0x7c,0x59,0x69,0xaa,0xf7,0x74,0x69,0x92,
 0x4a,0x2a,0xf9,0xff,0xbf,0xbf,0xbf,0x02,0xae,0xdb,0x56,0x55,0x3d,0xd5,0x95,
 0xb6,0x94,0x4a,0xe5,0xff,0xef,0xfd,0xf7,0x00,0xbc,0xb2,0x5a,0xd5,0x5f,0x51,
 0x6b,0x89,0xb2,0xaa,0xda,0xff,0xff,0xab,0xbe,0x05,0xee,0xaf,0xb5,0x52,0x57,
 0x12,0xdc,0xb6,0x94,0x52,0xf5,0xff,0xff,0x7a,0x7f,0x01,0x7c,0x75,0x55,0xfd,
 0x4f,0x4d,0x23,0x59,0x45,0x4a,0xea,0xff,0xbf,0xb3,0x6e,0x01,0xfe,0xaf,0xab,
 0xd6,0x95,0xd2,0x56,0xaa,0xa8,0x55,0xf5,0xff,0xf7,0x77,0x7f,0x00,0xec,0x7a,
 0xab,0xf6,0x53,0xaa,0x85,0x52,0x57,0xad,0xea,0xff,0xff,0xd7,0xee,0x05,0xfc,
 0xee,0x7e,0xfb,0xa4,0x44,0x3e,0xd5,0x14,0x51,0xfa,0xff,0xff,0xbe,0xbe,0x00,
 0xbc,0x5d,0xd7,0x7f,0x49,0xab,0xca,0x2a,0xeb,0xaa,0xf5,0xff,0xff,0x7f,0x7d,
 0x01,0xfc,0xf9,0xbb,0x5e,0x55,0x14,0xad,0x92,0x14,0xad,0xea,0xff,0xff,0x6f,
 0x6f,0x01,0xfc,0xf5,0xdd,0xb7,0xaa,0xa2,0x78,0x4c,0x55,0xa9,0xf7,0xff,0xff,
 0xff,0xbe,0x02,0xbc,0xc3,0x6f,0x89,0x94,0x14,0x55,0x93,0xa8,0x56,0xf9,0xf5,
 0xfd,0xaf,0xfe,0x00,0xfc,0x23,0x5f,0x55,0x2a,0x69,0xb9,0x34,0x43,0xb5,0xfe,
 0xff,0x7f,0xb9,0xae,0x05,0x7c,0x17,0xac,0x8a,0x54,0x25,0x54,0x65,0x94,0x4a,
 0xfd,0xff,0xfb,0xa2,0x7f,0x01,0xdc,0x8f,0x78,0xb5,0x52,0x99,0xe2,0x8a,0x2b,
 0xa9,0x7e,0xff,0xff,0x57,0xff,0x00,0xfc,0x2f,0xd6,0x2a,0x45,0xa5,0xd4,0x52,
 0x54,0xa5,0xff,0xff,0xf5,0xae,0x5b,0x05,0xfc,0x9b,0xbc,0xa5,0x9a,0x44,0x53,
 0x95,0x22,0x29,0xfd,0xef,0xbf,0xb7,0xff,0x02,0xf8,0x7f,0x78,0x55,0x2a,0x29,
 0xca,0xab,0x54,0x15,0xda,0xfb,0xee,0xa8,0xdf,0x00,0xec,0x7f,0x54,0xab,0x4a,
 0xa2,0xb2,0x26,0xab,0xaa,0xb5,0xff,0x7b,0xd4,0x7d,0x01,0xf8,0xee,0xa1,0xad,
 0x52,0xad,0xd4,0x4d,0x92,0xa4,0x54,0xff,0x3f,0xf5,0xdf,0x02,0xfc,0x7f,0x81,
 0xba,0x56,0x25,0xa9,0xab,0x2a,0x29,0xad,0xfc,0x2b,0xf4,0xff,0x01,0xf8,0xff,
 0x27,0xab,0x58,0x4a,0xda,0x52,0x45,0xca,0xd2,0xee,0x05,0xfd,0x6d,0x02,0xd8,
 0xff,0x8e,0xdf,0x47,0xa9,0xf2,0x97,0xa8,0x12,0x55,0x55,0x81,0x6e,0xff,0x11,
 0xf8,0xff,0x9b,0x36,0xfd,0xd6,0xde,0x2a,0x83,0x54,0xa5,0x1a,0x40,0xfb,0xbf,
 0x02,0xf8,0xdf,0x77,0x6f,0xab,0xbd,0xf5,0x57,0x28,0xa1,0x4a,0xbf,0x50,0xff,
 0xef,0x00,0x78,0xff,0xdf,0xd9,0x76,0x67,0xfb,0x95,0x12,0x2a,0xe9,0x3a,0xd0,
 0xff,0xf7,0x05,0xf8,0xf7,0x7f,0x57,0xdb,0xdd,0xfe,0x6d,0x05,0x00,0x92,0x1d,
 0xf6,0xff,0xbe,0x02,0xf8,0xff,0xff,0xad,0xfe,0xff,0xff,0xb7,0x4b,0x55,0x20,
 0x02,0xfc,0xbd,0xff,0x02,0xf4,0xff,0xff,0x6f,0xfb,0xff,0xff,0xee,0x4a,0xa5,
 0x4e,0x54,0xe1,0xff,0x6f,0x01,0xbc,0xff,0xff,0xff,0xa6,0xee,0x2f,0xf1,0x25,
 0x48,0xa9,0x95,0xea,0xff,0xff,0x02,0xfa,0xff,0xbb,0xff,0x5d,0x01,0x00,0x60,
 0x0d,0x04,0x00,0xb4,0xc4,0xef,0xbd,0x25,0xfc,0xff,0xff,0xef,0xb7,0x12,0x00,
 0x80,0x05,0x25,0x00,0x00,0xd0,0x7d,0xff,0x01,0x7c,0xbb,0xff,0xff,0xff,0xaf,
 0x48,0x08,0x48,0xb4,0x5a,0x03,0xc2,0xff,0x6f,0x05,0xd8,0xff,0xff,0x7b,0xff,
 0xbb,0x05,0x00,0x00,0x64,0x84,0xac,0xc2,0xff,0xff,0x02,0xe0,0xff,0xff,0xff,
 0xbf,0xff,0xbb,0xa5,0x22,0x80,0x9a,0xa2,0xc2,0xff,0xdd,0x09,0x80,0xff,0x77,
 0xff,0xf7,0xff,0xff,0xbf,0xeb,0x00,0x00,0x28,0xe2,0xb7,0xff,0x01,0x40,0xfa,
 0xfd,0xff,0xfd,0x7f,0xff,0xfb,0xff,0xff,0x01,0x00,0xd0,0xfd,0x6f,0x0b,0x00,
 0xa0,0xff,0xef,0xff,0xed,0x7f,0xff,0xcf,0xff,0xff,0x2f,0xd9,0xff,0xfd,0x02,
 0x00,0x00,0x80,0x7a,0xff,0xff,0xf7,0x7f,0x3f,0xfd,0xff,0xff,0xdf,0xff,0xbf,
 0x05,0x00,0x00,0x00,0x80,0x6a,0xff,0xff,0xdf,0xff,0x2b,0xea,0xff,0xdf,0xff,
 0xef,0x07,0x00,0x00,0x00,0x00,0x00,0xd0,0xde,0xfb,0xff,0xfe,0xbf,0x40,0xe5,
 0x7f,0xfb,0x02,0x00,0x00,0x00,0x00,0x00,0x00,0xa0,0xfe,0xfb,0xff,0xff,0xbf,
 0xfb,0xdb,0xff,0x01,0x00,0x00,0x00,0x00,0x00,0x00,0x00,0x80,0xde,0xdf,0xfb,
 0xff,0xff,0xfe,0x3f,0x00,0x00,0x00,0x00,0x00,0x00,0x00,0x00,0x00,0x00,0x50,
 0xbe,0xff,0xff,0xff,0x0f,0x00,0x00,0x00,0x00,0x00,0x00,0x00,0x00,0x00,0x00,
 0x00,0x81,0x64,0xff,0x7f,0x00,0x00,0x00,0x00,0x00,0x00,0x00,0x00,0x00,0x00,
 0x00,0x00,0x00,0x00,0xa0,0x04,0x00,0x00,0x00,0x00,0x00,0x00,0x00,0x00,0x00,
 0x00,0x00,0x00,0x00,0x00,0x04,0x00,0x00,0x00,0x00,0x00,0x00,0x00,0x00,0x00,
 0x00,0x00,0x00,0x00,0x00,0x00,0x00,0x00,0x00,0x00,0x00,0x00,0x00,0x00,0x00,
 0x00,0x00,0x00,0x00,0x00,0x00,0x00,0x00,0x01,0x00,0x00};
